<svg width="172" height="29" viewBox="0 0 172 29" fill="none" xmlns="http://www.w3.org/2000/svg">
<path d="M0.64 28V-1.90735e-06H12.8C14.56 -1.90735e-06 16.0933 0.306665 17.4 0.919998C18.7067 1.53333 19.72 2.4 20.44 3.52C21.16 4.64 21.52 5.96 21.52 7.48V7.96C21.52 9.64 21.12 11 20.32 12.04C19.52 13.08 18.5333 13.84 17.36 14.32V15.04C18.4267 15.0933 19.2533 15.4667 19.84 16.16C20.4267 16.8267 20.72 17.72 20.72 18.84V28H15.44V19.6C15.44 18.96 15.2667 18.44 14.92 18.04C14.6 17.64 14.0533 17.44 13.28 17.44H5.92V28H0.64ZM5.92 12.64H12.24C13.4933 12.64 14.4667 12.3067 15.16 11.64C15.88 10.9467 16.24 10.04 16.24 8.92V8.52C16.24 7.4 15.8933 6.50667 15.2 5.84C14.5067 5.14667 13.52 4.8 12.24 4.8H5.92V12.64ZM35.1134 28.56C33.1401 28.56 31.3934 28.1467 29.8734 27.32C28.3801 26.4667 27.2068 25.28 26.3534 23.76C25.5268 22.2133 25.1134 20.4 25.1134 18.32V17.84C25.1134 15.76 25.5268 13.96 26.3534 12.44C27.1801 10.8933 28.3401 9.70667 29.8334 8.88C31.3268 8.02667 33.0601 7.6 35.0334 7.6C36.9801 7.6 38.6734 8.04 40.1134 8.92C41.5534 9.77333 42.6734 10.9733 43.4734 12.52C44.2734 14.04 44.6734 15.8133 44.6734 17.84V19.56H30.2334C30.2868 20.92 30.7934 22.0267 31.7534 22.88C32.7134 23.7333 33.8868 24.16 35.2734 24.16C36.6868 24.16 37.7268 23.8533 38.3934 23.24C39.0601 22.6267 39.5668 21.9467 39.9134 21.2L44.0334 23.36C43.6601 24.0533 43.1134 24.8133 42.3934 25.64C41.7001 26.44 40.7668 27.1333 39.5934 27.72C38.4201 28.28 36.9268 28.56 35.1134 28.56ZM30.2734 15.8H39.5534C39.4468 14.6533 38.9801 13.7333 38.1534 13.04C37.3534 12.3467 36.3001 12 34.9934 12C33.6334 12 32.5534 12.3467 31.7534 13.04C30.9534 13.7333 30.4601 14.6533 30.2734 15.8ZM57.3994 28.56C54.8127 28.56 52.6927 28 51.0394 26.88C49.386 25.76 48.386 24.16 48.0394 22.08L52.6794 20.88C52.866 21.8133 53.1727 22.5467 53.5994 23.08C54.0527 23.6133 54.5994 24 55.2394 24.24C55.906 24.4533 56.626 24.56 57.3994 24.56C58.5727 24.56 59.4394 24.36 59.9994 23.96C60.5594 23.5333 60.8394 23.0133 60.8394 22.4C60.8394 21.7867 60.5727 21.32 60.0394 21C59.506 20.6533 58.6527 20.3733 57.4794 20.16L56.3594 19.96C54.9727 19.6933 53.706 19.3333 52.5594 18.88C51.4127 18.4 50.4927 17.7467 49.7994 16.92C49.106 16.0933 48.7594 15.0267 48.7594 13.72C48.7594 11.7467 49.4794 10.24 50.9194 9.2C52.3594 8.13333 54.2527 7.6 56.5994 7.6C58.8127 7.6 60.6527 8.09333 62.1194 9.08C63.586 10.0667 64.546 11.36 64.9994 12.96L60.3194 14.4C60.106 13.3867 59.666 12.6667 58.9994 12.24C58.3594 11.8133 57.5594 11.6 56.5994 11.6C55.6394 11.6 54.906 11.7733 54.3994 12.12C53.8927 12.44 53.6394 12.8933 53.6394 13.48C53.6394 14.12 53.906 14.6 54.4394 14.92C54.9727 15.2133 55.6927 15.44 56.5994 15.6L57.7194 15.8C59.2127 16.0667 60.5594 16.4267 61.7594 16.88C62.986 17.3067 63.946 17.9333 64.6394 18.76C65.3594 19.56 65.7194 20.6533 65.7194 22.04C65.7194 24.12 64.9594 25.7333 63.4394 26.88C61.946 28 59.9327 28.56 57.3994 28.56ZM79.5759 28.56C77.6026 28.56 75.8293 28.16 74.2559 27.36C72.6826 26.56 71.4426 25.4 70.5359 23.88C69.6293 22.36 69.1759 20.5333 69.1759 18.4V17.76C69.1759 15.6267 69.6293 13.8 70.5359 12.28C71.4426 10.76 72.6826 9.6 74.2559 8.8C75.8293 8 77.6026 7.6 79.5759 7.6C81.5493 7.6 83.3226 8 84.8959 8.8C86.4693 9.6 87.7093 10.76 88.6159 12.28C89.5226 13.8 89.9759 15.6267 89.9759 17.76V18.4C89.9759 20.5333 89.5226 22.36 88.6159 23.88C87.7093 25.4 86.4693 26.56 84.8959 27.36C83.3226 28.16 81.5493 28.56 79.5759 28.56ZM79.5759 24.08C81.1226 24.08 82.4026 23.5867 83.4159 22.6C84.4293 21.5867 84.9359 20.1467 84.9359 18.28V17.88C84.9359 16.0133 84.4293 14.5867 83.4159 13.6C82.4293 12.5867 81.1493 12.08 79.5759 12.08C78.0293 12.08 76.7493 12.5867 75.7359 13.6C74.7226 14.5867 74.2159 16.0133 74.2159 17.88V18.28C74.2159 20.1467 74.7226 21.5867 75.7359 22.6C76.7493 23.5867 78.0293 24.08 79.5759 24.08ZM94.6281 28V-1.90735e-06H99.6681V28H94.6281ZM109.413 28L103.093 8.16H108.453L113.053 24.32H113.773L118.373 8.16H123.733L117.413 28H109.413ZM135.621 28.56C133.648 28.56 131.901 28.1467 130.381 27.32C128.888 26.4667 127.715 25.28 126.861 23.76C126.035 22.2133 125.621 20.4 125.621 18.32V17.84C125.621 15.76 126.035 13.96 126.861 12.44C127.688 10.8933 128.848 9.70667 130.341 8.88C131.835 8.02667 133.568 7.6 135.541 7.6C137.488 7.6 139.181 8.04 140.621 8.92C142.061 9.77333 143.181 10.9733 143.981 12.52C144.781 14.04 145.181 15.8133 145.181 17.84V19.56H130.741C130.795 20.92 131.301 22.0267 132.261 22.88C133.221 23.7333 134.395 24.16 135.781 24.16C137.195 24.16 138.235 23.8533 138.901 23.24C139.568 22.6267 140.075 21.9467 140.421 21.2L144.541 23.36C144.168 24.0533 143.621 24.8133 142.901 25.64C142.208 26.44 141.275 27.1333 140.101 27.72C138.928 28.28 137.435 28.56 135.621 28.56ZM130.781 15.8H140.061C139.955 14.6533 139.488 13.7333 138.661 13.04C137.861 12.3467 136.808 12 135.501 12C134.141 12 133.061 12.3467 132.261 13.04C131.461 13.7333 130.968 14.6533 130.781 15.8ZM147.747 28L155.947 13.88L147.827 -1.90735e-06H153.827L159.387 10.12H160.107L165.667 -1.90735e-06H171.667L163.547 13.88L171.747 28H165.747L160.107 17.64H159.387L153.747 28H147.747Z" fill="#18181B"/>
</svg>
