<svg width="40" height="40" viewBox="0 0 40 40" fill="none" xmlns="http://www.w3.org/2000/svg">
<path d="M0 1.5C0 0.671573 0.671573 0 1.5 0H10V20H0V1.5Z" fill="#18181B"/>
<path d="M0 1.5C0 0.671573 0.671573 0 1.5 0H20V10H0V1.5Z" fill="#18181B"/>
<rect x="20" y="10" width="20" height="10" fill="#18181B"/>
<path d="M0 30H30V40H1.5C0.671573 40 0 39.3284 0 38.5V30Z" fill="#18181B"/>
<rect x="10" y="20" width="10" height="20" fill="#18181B"/>
<path d="M30 0H38.5C39.3284 0 40 0.671573 40 1.5V30H30V0Z" fill="#18181B"/>
<path d="M0 1.5C0 0.671573 0.671573 0 1.5 0H10V20H0V1.5Z" fill="#18181B"/>
<path d="M0 1.5C0 0.671573 0.671573 0 1.5 0H20V10H0V1.5Z" fill="#18181B"/>
<rect x="20" y="10" width="20" height="10" fill="#18181B"/>
<path d="M0 30H30V40H1.5C0.671573 40 0 39.3284 0 38.5V30Z" fill="#18181B"/>
<rect x="10" y="20" width="10" height="20" fill="#18181B"/>
<path d="M30 0H38.5C39.3284 0 40 0.671573 40 1.5V30H30V0Z" fill="#18181B"/>
</svg>
