<svg width="21" height="23" viewBox="0 0 21 23" fill="none" xmlns="http://www.w3.org/2000/svg">
<path d="M11.5604 4.22362C11.5641 3.59826 11.3332 2.99424 10.9133 2.53082C10.4933 2.0674 9.91493 1.77827 9.29223 1.72052C8.66953 1.66277 8.04781 1.8406 7.54983 2.21889C7.05185 2.59718 6.7138 3.14844 6.60244 3.76381C6.27293 3.82555 5.95921 3.95295 5.67996 4.13844C5.40071 4.32393 5.16163 4.56371 4.97696 4.8435C4.7923 5.1233 4.66582 5.43739 4.60505 5.76708C4.54429 6.09677 4.55048 6.43532 4.62326 6.76257C4.17211 6.84266 3.75167 7.04525 3.40789 7.34818C3.06412 7.65112 2.81026 8.04275 2.67405 8.48024C2.53785 8.91774 2.52456 9.38426 2.63563 9.8288C2.74669 10.2733 2.97785 10.6788 3.30381 11.0008C2.75557 11.2539 2.29651 11.6666 1.98672 12.185C1.67693 12.7033 1.53084 13.3031 1.56756 13.9058C1.60429 14.5085 1.82212 15.0861 2.19255 15.563C2.56298 16.0399 3.06875 16.3938 3.64367 16.5785C3.5339 16.9932 3.53273 17.4291 3.64026 17.8444C3.74779 18.2597 3.96041 18.6403 4.25764 18.9495C4.55488 19.2588 4.92673 19.4864 5.3374 19.6103C5.74807 19.7343 6.18373 19.7504 6.60244 19.6572C6.70621 20.2288 7.00591 20.7465 7.45 21.1211C7.89409 21.4956 8.45483 21.7038 9.03577 21.7097C9.61672 21.7156 10.1816 21.5189 10.6332 21.1535C11.0848 20.788 11.395 20.2766 11.5104 19.7072L11.5604 19.7172V4.22362Z" stroke="#18181B" stroke-width="1.5" stroke-linecap="round" stroke-linejoin="round"/>
<path d="M15.5587 7.72217V4.72341C15.5587 3.62387 16.4583 2.72424 17.5579 2.72424" stroke="#18181B" stroke-width="1.5" stroke-linecap="round" stroke-linejoin="round"/>
<path d="M11.5604 12.7201H15.5588" stroke="#18181B" stroke-width="1.5" stroke-linecap="round" stroke-linejoin="round"/>
<path d="M11.5604 17.718H17.5579C18.0881 17.718 18.5966 17.9286 18.9716 18.3036C19.3465 18.6785 19.5571 19.187 19.5571 19.7172V20.7168" stroke="#18181B" stroke-width="1.5" stroke-linecap="round" stroke-linejoin="round"/>
<path d="M11.5604 7.72217H19.5571" stroke="#18181B" stroke-width="1.5" stroke-linecap="round" stroke-linejoin="round"/>
<path d="M20.0568 7.72208C20.0568 7.85464 20.0042 7.98176 19.9105 8.07549C19.8167 8.16922 19.6896 8.22187 19.557 8.22187C19.4245 8.22187 19.2974 8.16922 19.2036 8.07549C19.1099 7.98176 19.0573 7.85464 19.0573 7.72208C19.0573 7.58953 19.1099 7.46241 19.2036 7.36868C19.2974 7.27495 19.4245 7.22229 19.557 7.22229C19.6896 7.22229 19.8167 7.27495 19.9105 7.36868C20.0042 7.46241 20.0568 7.58953 20.0568 7.72208Z" stroke="#18181B" stroke-width="1.5" stroke-linecap="round" stroke-linejoin="round"/>
<path d="M16.0585 12.7201C16.0585 12.8527 16.0059 12.9798 15.9122 13.0735C15.8184 13.1673 15.6913 13.2199 15.5588 13.2199C15.4262 13.2199 15.2991 13.1673 15.2053 13.0735C15.1116 12.9798 15.059 12.8527 15.059 12.7201C15.059 12.5876 15.1116 12.4605 15.2053 12.3667C15.2991 12.273 15.4262 12.2203 15.5588 12.2203C15.6913 12.2203 15.8184 12.273 15.9122 12.3667C16.0059 12.4605 16.0585 12.5876 16.0585 12.7201Z" stroke="#18181B" stroke-width="1.5" stroke-linecap="round" stroke-linejoin="round"/>
<path d="M20.0568 20.7167C20.0568 20.8493 20.0042 20.9764 19.9105 21.0701C19.8167 21.1638 19.6896 21.2165 19.557 21.2165C19.4245 21.2165 19.2974 21.1638 19.2036 21.0701C19.1099 20.9764 19.0573 20.8493 19.0573 20.7167C19.0573 20.5842 19.1099 20.457 19.2036 20.3633C19.2974 20.2696 19.4245 20.2169 19.557 20.2169C19.6896 20.2169 19.8167 20.2696 19.9105 20.3633C20.0042 20.457 20.0568 20.5842 20.0568 20.7167Z" stroke="#18181B" stroke-width="1.5" stroke-linecap="round" stroke-linejoin="round"/>
<path d="M18.0577 2.72416C18.0577 2.85671 18.005 2.98383 17.9113 3.07756C17.8176 3.17129 17.6905 3.22395 17.5579 3.22395C17.4253 3.22395 17.2982 3.17129 17.2045 3.07756C17.1108 2.98383 17.0581 2.85671 17.0581 2.72416C17.0581 2.5916 17.1108 2.46448 17.2045 2.37075C17.2982 2.27702 17.4253 2.22437 17.5579 2.22437C17.6905 2.22437 17.8176 2.27702 17.9113 2.37075C18.005 2.46448 18.0577 2.5916 18.0577 2.72416Z" stroke="#18181B" stroke-width="1.5" stroke-linecap="round" stroke-linejoin="round"/>
</svg>
