<svg width="20" height="20" viewBox="0 0 20 20" fill="none" xmlns="http://www.w3.org/2000/svg">
<g clip-path="url(#clip0_7524_2257)">
<path d="M6.66663 1.66663H3.33329C2.41282 1.66663 1.66663 2.41282 1.66663 3.33329V6.66663C1.66663 7.5871 2.41282 8.33329 3.33329 8.33329H6.66663C7.5871 8.33329 8.33329 7.5871 8.33329 6.66663V3.33329C8.33329 2.41282 7.5871 1.66663 6.66663 1.66663Z" stroke="#18181B" stroke-width="1.5" stroke-linecap="round" stroke-linejoin="round"/>
<path d="M11.6666 1.66663C12.5833 1.66663 13.3333 2.41663 13.3333 3.33329V6.66663C13.3333 7.58329 12.5833 8.33329 11.6666 8.33329" stroke="#18181B" stroke-width="1.5" stroke-linecap="round" stroke-linejoin="round"/>
<path d="M16.6666 1.66663C17.5833 1.66663 18.3333 2.41663 18.3333 3.33329V6.66663C18.3333 7.58329 17.5833 8.33329 16.6666 8.33329" stroke="#18181B" stroke-width="1.5" stroke-linecap="round" stroke-linejoin="round"/>
<path d="M8.33329 15H4.16663C2.74996 15 1.66663 13.9166 1.66663 12.5V11.6666" stroke="#18181B" stroke-width="1.5" stroke-linecap="round" stroke-linejoin="round"/>
<path d="M5.83337 17.5L8.33337 15L5.83337 12.5" stroke="#18181B" stroke-width="1.5" stroke-linecap="round" stroke-linejoin="round"/>
<path d="M16.6666 11.6666H13.3333C12.4128 11.6666 11.6666 12.4128 11.6666 13.3333V16.6666C11.6666 17.5871 12.4128 18.3333 13.3333 18.3333H16.6666C17.5871 18.3333 18.3333 17.5871 18.3333 16.6666V13.3333C18.3333 12.4128 17.5871 11.6666 16.6666 11.6666Z" stroke="#18181B" stroke-width="1.5" stroke-linecap="round" stroke-linejoin="round"/>
</g>
<defs>
<clipPath id="clip0_7524_2257">
<rect width="20" height="20" fill="white"/>
</clipPath>
</defs>
</svg>
