<svg width="18" height="19" viewBox="0 0 18 19" fill="none" xmlns="http://www.w3.org/2000/svg">
<path fill-rule="evenodd" clip-rule="evenodd" d="M9 15.5C10.5913 15.5 12.1174 14.8679 13.2426 13.7426C14.3679 12.6174 15 11.0913 15 9.5C15 7.9087 14.3679 6.38258 13.2426 5.25736C12.1174 4.13214 10.5913 3.5 9 3.5C7.4087 3.5 5.88258 4.13214 4.75736 5.25736C3.63214 6.38258 3 7.9087 3 9.5C3 11.0913 3.63214 12.6174 4.75736 13.7426C5.88258 14.8679 7.4087 15.5 9 15.5ZM9 17C13.1423 17 16.5 13.6423 16.5 9.5C16.5 5.35775 13.1423 2 9 2C4.85775 2 1.5 5.35775 1.5 9.5C1.5 13.6423 4.85775 17 9 17Z" fill="#3F3F46"/>
<path fill-rule="evenodd" clip-rule="evenodd" d="M9 11.75C9.59674 11.75 10.169 11.5129 10.591 11.091C11.0129 10.669 11.25 10.0967 11.25 9.5C11.25 8.90326 11.0129 8.33097 10.591 7.90901C10.169 7.48705 9.59674 7.25 9 7.25C8.40326 7.25 7.83097 7.48705 7.40901 7.90901C6.98705 8.33097 6.75 8.90326 6.75 9.5C6.75 10.0967 6.98705 10.669 7.40901 11.091C7.83097 11.5129 8.40326 11.75 9 11.75ZM9 13.25C9.99456 13.25 10.9484 12.8549 11.6517 12.1517C12.3549 11.4484 12.75 10.4946 12.75 9.5C12.75 8.50544 12.3549 7.55161 11.6517 6.84835C10.9484 6.14509 9.99456 5.75 9 5.75C8.00544 5.75 7.05161 6.14509 6.34835 6.84835C5.64509 7.55161 5.25 8.50544 5.25 9.5C5.25 10.4946 5.64509 11.4484 6.34835 12.1517C7.05161 12.8549 8.00544 13.25 9 13.25Z" fill="#3F3F46"/>
</svg>
