<svg width="40" height="40" viewBox="0 0 40 40" fill="none" xmlns="http://www.w3.org/2000/svg">
<g clip-path="url(#clip0_7594_1102)">
<mask id="mask0_7594_1102" style="mask-type:alpha" maskUnits="userSpaceOnUse" x="0" y="0" width="40" height="40">
<path d="M38 0H2C0.89543 0 0 0.89543 0 2V38C0 39.1046 0.89543 40 2 40H38C39.1046 40 40 39.1046 40 38V2C40 0.89543 39.1046 0 38 0Z" fill="black"/>
</mask>
<g mask="url(#mask0_7594_1102)">
<path d="M40 0H0V40H40V0Z" fill="#18181B"/>
<path d="M20 10H10V20H20V10Z" fill="white"/>
<path d="M10 20H0V30H10V20Z" fill="white"/>
<path d="M40 30H30V40H40V30Z" fill="white"/>
<path d="M30 0H20V10H30V0Z" fill="white"/>
<path d="M40 0H30V10H40V0Z" fill="white"/>
<path d="M30 20H20V30H30V20Z" fill="white"/>
</g>
</g>
<defs>
<clipPath id="clip0_7594_1102">
<rect width="40" height="40" fill="white"/>
</clipPath>
</defs>
</svg>
