<svg width="18" height="19" viewBox="0 0 18 19" fill="none" xmlns="http://www.w3.org/2000/svg">
<path d="M8.9999 2.00015C10.0372 2.00015 11.0122 2.1974 11.9249 2.59115C12.8136 2.96872 13.6218 3.51274 14.3062 4.1939C14.9812 4.8689 15.5159 5.6624 15.9089 6.57515C16.3051 7.49908 16.5063 8.49486 16.4999 9.50015C16.5063 10.5054 16.3051 11.5012 15.9089 12.4251C15.5313 13.3138 14.9873 14.1221 14.3062 14.8064C13.6312 15.4814 12.8377 16.0161 11.9249 16.4091C11.001 16.8054 10.0052 17.0066 8.9999 17.0001C7.99462 17.0066 6.99884 16.8054 6.0749 16.4091C5.18625 16.0316 4.37799 15.4875 3.69365 14.8064C3.01865 14.1314 2.48465 13.3379 2.0909 12.4251C1.6947 11.5012 1.4935 10.5054 1.4999 9.50015C1.4999 8.4629 1.69715 7.4879 2.0909 6.57515C2.46849 5.6865 3.01251 4.87824 3.69365 4.1939C4.36865 3.5189 5.16215 2.9849 6.0749 2.59115C6.99884 2.19494 7.99462 1.99374 8.9999 2.00015ZM8.9999 3.50015C7.33715 3.50015 5.9219 4.08515 4.7534 5.25365C3.58415 6.42215 2.9999 7.8374 2.9999 9.50015C2.9999 11.1629 3.5849 12.5781 4.7534 13.7474C5.9219 14.9151 7.33715 15.5001 8.9999 15.5001C10.6627 15.5001 12.0779 14.9151 13.2472 13.7474C14.4149 12.5781 14.9999 11.1629 14.9999 9.50015C14.9999 7.8374 14.4149 6.42215 13.2472 5.25365C12.0779 4.0844 10.6627 3.50015 8.9999 3.50015Z" fill="#3F3F46"/>
</svg>
